{
	"asset":{
		"generator":"Khronos glTF Blender I/O v5.0.21",
		"version":"2.0"
	},
	"extensionsUsed":[
		"KHR_materials_emissive_strength"
	],
	"scene":0,
	"scenes":[
		{
			"name":"Scene",
			"nodes":[
				0
			]
		}
	],
	"nodes":[
		{
			"mesh":0,
			"name":"Object_8",
			"translation":[
				-0.013192176818847656,
				0.7735779881477356,
				-2.0792033672332764
			]
		}
	],
	"materials":[
		{
			"emissiveFactor":[
				1,
				1,
				1
			],
			"emissiveTexture":{
				"index":0
			},
			"extensions":{
				"KHR_materials_emissive_strength":{
					"emissiveStrength":1.75
				}
			},
			"name":"Crystal_02.007",
			"normalTexture":{
				"index":1
			},
			"pbrMetallicRoughness":{
				"baseColorTexture":{
					"index":2
				},
				"metallicRoughnessTexture":{
					"index":3
				}
			}
		}
	],
	"meshes":[
		{
			"name":"Object_2.001",
			"primitives":[
				{
					"attributes":{
						"POSITION":0,
						"NORMAL":1,
						"TEXCOORD_0":2,
						"TEXCOORD_1":3,
						"TEXCOORD_2":4,
						"TEXCOORD_3":5,
						"TEXCOORD_4":6
					},
					"indices":7,
					"material":0
				}
			]
		}
	],
	"textures":[
		{
			"sampler":0,
			"source":0
		},
		{
			"sampler":0,
			"source":1
		},
		{
			"sampler":0,
			"source":2
		},
		{
			"sampler":0,
			"source":3
		}
	],
	"images":[
		{
			"mimeType":"image/png",
			"name":"Crystal_02.007_emissive",
			"uri":"textures/Crystal_02.007_emissive.png"
		},
		{
			"mimeType":"image/png",
			"name":"Crystal_02.007_normal",
			"uri":"textures/Crystal_02.007_normal.png"
		},
		{
			"mimeType":"image/png",
			"name":"Crystal_02.007_baseColor",
			"uri":"textures/Crystal_02.007_baseColor.png"
		},
		{
			"mimeType":"image/png",
			"name":"Crystal_02.004_metallicRoughness",
			"uri":"textures/Crystal_02.004_metallicRoughness.png"
		}
	],
	"accessors":[
		{
			"bufferView":0,
			"componentType":5126,
			"count":1845,
			"max":[
				1.4675358533859253,
				1.6681252717971802,
				0.8838533163070679
			],
			"min":[
				-1.3003510236740112,
				-0.7870491743087769,
				-1.1174728870391846
			],
			"type":"VEC3"
		},
		{
			"bufferView":1,
			"componentType":5126,
			"count":1845,
			"type":"VEC3"
		},
		{
			"bufferView":2,
			"componentType":5126,
			"count":1845,
			"type":"VEC2"
		},
		{
			"bufferView":3,
			"componentType":5126,
			"count":1845,
			"type":"VEC2"
		},
		{
			"bufferView":4,
			"componentType":5126,
			"count":1845,
			"type":"VEC2"
		},
		{
			"bufferView":5,
			"componentType":5126,
			"count":1845,
			"type":"VEC2"
		},
		{
			"bufferView":6,
			"componentType":5126,
			"count":1845,
			"type":"VEC2"
		},
		{
			"bufferView":7,
			"componentType":5123,
			"count":2922,
			"type":"SCALAR"
		}
	],
	"bufferViews":[
		{
			"buffer":0,
			"byteLength":22140,
			"byteOffset":0,
			"target":34962
		},
		{
			"buffer":0,
			"byteLength":22140,
			"byteOffset":22140,
			"target":34962
		},
		{
			"buffer":0,
			"byteLength":14760,
			"byteOffset":44280,
			"target":34962
		},
		{
			"buffer":0,
			"byteLength":14760,
			"byteOffset":59040,
			"target":34962
		},
		{
			"buffer":0,
			"byteLength":14760,
			"byteOffset":73800,
			"target":34962
		},
		{
			"buffer":0,
			"byteLength":14760,
			"byteOffset":88560,
			"target":34962
		},
		{
			"buffer":0,
			"byteLength":14760,
			"byteOffset":103320,
			"target":34962
		},
		{
			"buffer":0,
			"byteLength":5844,
			"byteOffset":118080,
			"target":34963
		}
	],
	"samplers":[
		{
			"magFilter":9729,
			"minFilter":9987
		}
	],
	"buffers":[
		{
			"byteLength":123924,
			"uri":"lgOrange.bin"
		}
	]
}
