{
  "accessors": [
    {
      "bufferView": 2,
      "componentType": 5126,
      "count": 147,
      "max": [
        309.5184631347656,
        529.688720703125,
        179.8412322998047
      ],
      "min": [
        -147.37423706054688,
        -5.19561767578125,
        -208.67437744140625
      ],
      "type": "VEC3"
    },
    {
      "bufferView": 2,
      "byteOffset": 1764,
      "componentType": 5126,
      "count": 147,
      "max": [
        0.9873611927032471,
        0.9861460328102112,
        0.9789323806762695
      ],
      "min": [
        -0.9990065693855286,
        -0.5746782422065735,
        -0.9886497855186462
      ],
      "type": "VEC3"
    },
    {
      "bufferView": 3,
      "componentType": 5126,
      "count": 147,
      "max": [
        0.9736064672470093,
        0.9945451021194458,
        0.9758288264274597,
        -1.0
      ],
      "min": [
        -0.9758743643760681,
        -0.9945518374443054,
        -0.9982837438583374,
        -1.0
      ],
      "type": "VEC4"
    },
    {
      "bufferView": 1,
      "componentType": 5126,
      "count": 147,
      "max": [
        0.9968254566192627,
        0.9955282807350159
      ],
      "min": [
        0.002757617738097906,
        0.0027499881107360125
      ],
      "type": "VEC2"
    },
    {
      "bufferView": 0,
      "componentType": 5125,
      "count": 378,
      "type": "SCALAR"
    },
    {
      "bufferView": 2,
      "byteOffset": 3528,
      "componentType": 5126,
      "count": 147,
      "max": [
        309.5184631347656,
        529.688720703125,
        179.8412322998047
      ],
      "min": [
        -147.37423706054688,
        -5.19561767578125,
        -208.67437744140625
      ],
      "type": "VEC3"
    },
    {
      "bufferView": 2,
      "byteOffset": 5292,
      "componentType": 5126,
      "count": 147,
      "max": [
        0.9873611927032471,
        0.9861460328102112,
        0.9789323806762695
      ],
      "min": [
        -0.9990065693855286,
        -0.5746782422065735,
        -0.9886497855186462
      ],
      "type": "VEC3"
    },
    {
      "bufferView": 3,
      "byteOffset": 2352,
      "componentType": 5126,
      "count": 147,
      "max": [
        0.9736064672470093,
        0.9945451021194458,
        0.9758288264274597,
        -1.0
      ],
      "min": [
        -0.9758743643760681,
        -0.9945518374443054,
        -0.9982837438583374,
        -1.0
      ],
      "type": "VEC4"
    },
    {
      "bufferView": 1,
      "byteOffset": 1176,
      "componentType": 5126,
      "count": 147,
      "max": [
        0.9968254566192627,
        0.9955282807350159
      ],
      "min": [
        0.002757617738097906,
        0.0027499881107360125
      ],
      "type": "VEC2"
    },
    {
      "bufferView": 0,
      "byteOffset": 1512,
      "componentType": 5125,
      "count": 378,
      "type": "SCALAR"
    },
    {
      "bufferView": 2,
      "byteOffset": 7056,
      "componentType": 5126,
      "count": 147,
      "max": [
        309.5184631347656,
        529.688720703125,
        179.8412322998047
      ],
      "min": [
        -147.37423706054688,
        -5.19561767578125,
        -208.67437744140625
      ],
      "type": "VEC3"
    },
    {
      "bufferView": 2,
      "byteOffset": 8820,
      "componentType": 5126,
      "count": 147,
      "max": [
        0.9873611927032471,
        0.9861460328102112,
        0.9789323806762695
      ],
      "min": [
        -0.9990065693855286,
        -0.5746782422065735,
        -0.9886497855186462
      ],
      "type": "VEC3"
    },
    {
      "bufferView": 3,
      "byteOffset": 4704,
      "componentType": 5126,
      "count": 147,
      "max": [
        0.9736064672470093,
        0.9945451021194458,
        0.9758288264274597,
        -1.0
      ],
      "min": [
        -0.9758743643760681,
        -0.9945518374443054,
        -0.9982837438583374,
        -1.0
      ],
      "type": "VEC4"
    },
    {
      "bufferView": 1,
      "byteOffset": 2352,
      "componentType": 5126,
      "count": 147,
      "max": [
        0.9968254566192627,
        0.9955282807350159
      ],
      "min": [
        0.002757617738097906,
        0.0027499881107360125
      ],
      "type": "VEC2"
    },
    {
      "bufferView": 0,
      "byteOffset": 3024,
      "componentType": 5125,
      "count": 378,
      "type": "SCALAR"
    },
    {
      "bufferView": 2,
      "byteOffset": 10584,
      "componentType": 5126,
      "count": 147,
      "max": [
        309.5184631347656,
        529.688720703125,
        179.8412322998047
      ],
      "min": [
        -147.37423706054688,
        -5.19561767578125,
        -208.67437744140625
      ],
      "type": "VEC3"
    },
    {
      "bufferView": 2,
      "byteOffset": 12348,
      "componentType": 5126,
      "count": 147,
      "max": [
        0.9873611927032471,
        0.9861460328102112,
        0.9789323806762695
      ],
      "min": [
        -0.9990065693855286,
        -0.5746782422065735,
        -0.9886497855186462
      ],
      "type": "VEC3"
    },
    {
      "bufferView": 3,
      "byteOffset": 7056,
      "componentType": 5126,
      "count": 147,
      "max": [
        0.9736064672470093,
        0.9945451021194458,
        0.9758288264274597,
        -1.0
      ],
      "min": [
        -0.9758743643760681,
        -0.9945518374443054,
        -0.9982837438583374,
        -1.0
      ],
      "type": "VEC4"
    },
    {
      "bufferView": 1,
      "byteOffset": 3528,
      "componentType": 5126,
      "count": 147,
      "max": [
        0.9968254566192627,
        0.9955282807350159
      ],
      "min": [
        0.002757617738097906,
        0.0027499881107360125
      ],
      "type": "VEC2"
    },
    {
      "bufferView": 0,
      "byteOffset": 4536,
      "componentType": 5125,
      "count": 378,
      "type": "SCALAR"
    },
    {
      "bufferView": 2,
      "byteOffset": 14112,
      "componentType": 5126,
      "count": 147,
      "max": [
        309.5184631347656,
        529.688720703125,
        179.8412322998047
      ],
      "min": [
        -147.37423706054688,
        -5.19561767578125,
        -208.67437744140625
      ],
      "type": "VEC3"
    },
    {
      "bufferView": 2,
      "byteOffset": 15876,
      "componentType": 5126,
      "count": 147,
      "max": [
        0.9873611927032471,
        0.9861460328102112,
        0.9789323806762695
      ],
      "min": [
        -0.9990065693855286,
        -0.5746782422065735,
        -0.9886497855186462
      ],
      "type": "VEC3"
    },
    {
      "bufferView": 3,
      "byteOffset": 9408,
      "componentType": 5126,
      "count": 147,
      "max": [
        0.9736064672470093,
        0.9945451021194458,
        0.9758288264274597,
        -1.0
      ],
      "min": [
        -0.9758743643760681,
        -0.9945518374443054,
        -0.9982837438583374,
        -1.0
      ],
      "type": "VEC4"
    },
    {
      "bufferView": 1,
      "byteOffset": 4704,
      "componentType": 5126,
      "count": 147,
      "max": [
        0.9968254566192627,
        0.9955282807350159
      ],
      "min": [
        0.002757617738097906,
        0.0027499881107360125
      ],
      "type": "VEC2"
    },
    {
      "bufferView": 0,
      "byteOffset": 6048,
      "componentType": 5125,
      "count": 378,
      "type": "SCALAR"
    },
    {
      "bufferView": 2,
      "byteOffset": 17640,
      "componentType": 5126,
      "count": 147,
      "max": [
        309.5184631347656,
        529.688720703125,
        179.8412322998047
      ],
      "min": [
        -147.37423706054688,
        -5.19561767578125,
        -208.67437744140625
      ],
      "type": "VEC3"
    },
    {
      "bufferView": 2,
      "byteOffset": 19404,
      "componentType": 5126,
      "count": 147,
      "max": [
        0.9873611927032471,
        0.9861460328102112,
        0.9789323806762695
      ],
      "min": [
        -0.9990065693855286,
        -0.5746782422065735,
        -0.9886497855186462
      ],
      "type": "VEC3"
    },
    {
      "bufferView": 3,
      "byteOffset": 11760,
      "componentType": 5126,
      "count": 147,
      "max": [
        0.9736064672470093,
        0.9945451021194458,
        0.9758288264274597,
        -1.0
      ],
      "min": [
        -0.9758743643760681,
        -0.9945518374443054,
        -0.9982837438583374,
        -1.0
      ],
      "type": "VEC4"
    },
    {
      "bufferView": 1,
      "byteOffset": 5880,
      "componentType": 5126,
      "count": 147,
      "max": [
        0.9968254566192627,
        0.9955282807350159
      ],
      "min": [
        0.002757617738097906,
        0.0027499881107360125
      ],
      "type": "VEC2"
    },
    {
      "bufferView": 0,
      "byteOffset": 7560,
      "componentType": 5125,
      "count": 378,
      "type": "SCALAR"
    }
  ],
  "asset": {
    "extras": {
      "author": "Batuhan13 (https://sketchfab.com/Batuhan13)",
      "license": "CC-BY-4.0 (http://creativecommons.org/licenses/by/4.0/)",
      "source": "https://sketchfab.com/3d-models/crystal-pack-stylized-6e4fb0784b264c62858763f394b0f169",
      "title": "Crystal Pack Stylized"
    },
    "generator": "Sketchfab-12.65.0",
    "version": "2.0"
  },
  "bufferViews": [
    {
      "buffer": 0,
      "byteLength": 9072,
      "name": "floatBufferViews",
      "target": 34963
    },
    {
      "buffer": 0,
      "byteLength": 7056,
      "byteOffset": 9072,
      "byteStride": 8,
      "name": "floatBufferViews",
      "target": 34962
    },
    {
      "buffer": 0,
      "byteLength": 21168,
      "byteOffset": 16128,
      "byteStride": 12,
      "name": "floatBufferViews",
      "target": 34962
    },
    {
      "buffer": 0,
      "byteLength": 14112,
      "byteOffset": 37296,
      "byteStride": 16,
      "name": "floatBufferViews",
      "target": 34962
    }
  ],
  "buffers": [
    {
      "byteLength": 51408,
      "uri": "scene.bin"
    }
  ],
  "images": [
    {
      "uri": "textures/BlueCrystal_baseColor.png"
    },
    {
      "uri": "textures/BlueCrystal_metallicRoughness.png"
    },
    {
      "uri": "textures/BlueCrystal_emissive.png"
    },
    {
      "uri": "textures/BlueCrystal_normal.png"
    },
    {
      "uri": "textures/RedCrystal_emissive.png"
    },
    {
      "uri": "textures/GreenCrystal_metallicRoughness.png"
    },
    {
      "uri": "textures/GreenCrystal_emissive.png"
    },
    {
      "uri": "textures/YellowCrystal_emissive.png"
    },
    {
      "uri": "textures/OrangeCrystal_emissive.png"
    },
    {
      "uri": "textures/PurpleCrystal_emissive.png"
    }
  ],
  "materials": [
    {
      "doubleSided": true,
      "emissiveFactor": [
        1.0,
        1.0,
        1.0
      ],
      "emissiveTexture": {
        "index": 2
      },
      "name": "BlueCrystal",
      "normalTexture": {
        "index": 3
      },
      "pbrMetallicRoughness": {
        "baseColorTexture": {
          "index": 0
        },
        "metallicRoughnessTexture": {
          "index": 1
        }
      }
    },
    {
      "doubleSided": true,
      "emissiveFactor": [
        1.0,
        1.0,
        1.0
      ],
      "emissiveTexture": {
        "index": 4
      },
      "name": "RedCrystal",
      "normalTexture": {
        "index": 3
      },
      "pbrMetallicRoughness": {
        "baseColorTexture": {
          "index": 0
        },
        "metallicRoughnessTexture": {
          "index": 1
        }
      }
    },
    {
      "doubleSided": true,
      "emissiveFactor": [
        1.0,
        1.0,
        1.0
      ],
      "emissiveTexture": {
        "index": 6
      },
      "name": "GreenCrystal",
      "normalTexture": {
        "index": 3
      },
      "pbrMetallicRoughness": {
        "baseColorTexture": {
          "index": 0
        },
        "metallicFactor": 0.0,
        "metallicRoughnessTexture": {
          "index": 5
        }
      }
    },
    {
      "doubleSided": true,
      "emissiveFactor": [
        1.0,
        1.0,
        1.0
      ],
      "emissiveTexture": {
        "index": 7
      },
      "name": "YellowCrystal",
      "normalTexture": {
        "index": 3
      },
      "pbrMetallicRoughness": {
        "baseColorTexture": {
          "index": 0
        },
        "metallicFactor": 0.0,
        "metallicRoughnessTexture": {
          "index": 5
        }
      }
    },
    {
      "doubleSided": true,
      "emissiveFactor": [
        1.0,
        1.0,
        1.0
      ],
      "emissiveTexture": {
        "index": 8
      },
      "name": "OrangeCrystal",
      "normalTexture": {
        "index": 3
      },
      "pbrMetallicRoughness": {
        "baseColorTexture": {
          "index": 0
        },
        "metallicFactor": 0.0,
        "metallicRoughnessTexture": {
          "index": 5
        }
      }
    },
    {
      "doubleSided": true,
      "emissiveFactor": [
        1.0,
        1.0,
        1.0
      ],
      "emissiveTexture": {
        "index": 9
      },
      "name": "PurpleCrystal",
      "normalTexture": {
        "index": 3
      },
      "pbrMetallicRoughness": {
        "baseColorTexture": {
          "index": 0
        },
        "metallicFactor": 0.0,
        "metallicRoughnessTexture": {
          "index": 5
        }
      }
    }
  ],
  "meshes": [
    {
      "name": "BlueCrystal_BlueCrystal_0",
      "primitives": [
        {
          "attributes": {
            "NORMAL": 1,
            "POSITION": 0,
            "TANGENT": 2,
            "TEXCOORD_0": 3
          },
          "indices": 4,
          "material": 0,
          "mode": 4
        }
      ]
    },
    {
      "name": "RedCrystal_RedCrystal_0",
      "primitives": [
        {
          "attributes": {
            "NORMAL": 6,
            "POSITION": 5,
            "TANGENT": 7,
            "TEXCOORD_0": 8
          },
          "indices": 9,
          "material": 1,
          "mode": 4
        }
      ]
    },
    {
      "name": "GreenCrystal_GreenCrystal_0",
      "primitives": [
        {
          "attributes": {
            "NORMAL": 11,
            "POSITION": 10,
            "TANGENT": 12,
            "TEXCOORD_0": 13
          },
          "indices": 14,
          "material": 2,
          "mode": 4
        }
      ]
    },
    {
      "name": "YellowCrystal_YellowCrystal_0",
      "primitives": [
        {
          "attributes": {
            "NORMAL": 16,
            "POSITION": 15,
            "TANGENT": 17,
            "TEXCOORD_0": 18
          },
          "indices": 19,
          "material": 3,
          "mode": 4
        }
      ]
    },
    {
      "name": "OrangeCrystal_OrangeCrystal_0",
      "primitives": [
        {
          "attributes": {
            "NORMAL": 21,
            "POSITION": 20,
            "TANGENT": 22,
            "TEXCOORD_0": 23
          },
          "indices": 24,
          "material": 4,
          "mode": 4
        }
      ]
    },
    {
      "name": "PurpleCrystal_PurpleCrystal_0",
      "primitives": [
        {
          "attributes": {
            "NORMAL": 26,
            "POSITION": 25,
            "TANGENT": 27,
            "TEXCOORD_0": 28
          },
          "indices": 29,
          "material": 5,
          "mode": 4
        }
      ]
    }
  ],
  "nodes": [
    {
      "children": [
        1
      ],
      "matrix": [
        1.0,
        0.0,
        0.0,
        0.0,
        0.0,
        2.220446049250313e-16,
        -1.0,
        0.0,
        0.0,
        1.0,
        2.220446049250313e-16,
        0.0,
        0.0,
        0.0,
        0.0,
        1.0
      ],
      "name": "Sketchfab_model"
    },
    {
      "children": [
        2
      ],
      "matrix": [
        1.0,
        0.0,
        0.0,
        0.0,
        0.0,
        0.0,
        1.0,
        0.0,
        0.0,
        -1.0,
        0.0,
        0.0,
        0.0,
        0.0,
        0.0,
        1.0
      ],
      "name": "7ee707653c984e47bb2d8d1c1a0b89e4.fbx"
    },
    {
      "children": [
        3,
        5,
        7,
        9,
        11,
        13
      ],
      "name": "RootNode"
    },
    {
      "children": [
        4
      ],
      "name": "BlueCrystal"
    },
    {
      "mesh": 0,
      "name": "BlueCrystal_BlueCrystal_0"
    },
    {
      "children": [
        6
      ],
      "matrix": [
        1.0,
        0.0,
        0.0,
        0.0,
        0.0,
        1.0,
        0.0,
        0.0,
        0.0,
        0.0,
        1.0,
        0.0,
        600.0,
        0.0,
        0.0,
        1.0
      ],
      "name": "RedCrystal"
    },
    {
      "mesh": 1,
      "name": "RedCrystal_RedCrystal_0"
    },
    {
      "children": [
        8
      ],
      "matrix": [
        1.0,
        0.0,
        0.0,
        0.0,
        0.0,
        1.0,
        0.0,
        0.0,
        0.0,
        0.0,
        1.0,
        0.0,
        1200.0,
        0.0,
        0.0,
        1.0
      ],
      "name": "GreenCrystal"
    },
    {
      "mesh": 2,
      "name": "GreenCrystal_GreenCrystal_0"
    },
    {
      "children": [
        10
      ],
      "matrix": [
        1.0,
        0.0,
        0.0,
        0.0,
        0.0,
        1.0,
        0.0,
        0.0,
        0.0,
        0.0,
        1.0,
        0.0,
        1800.0,
        0.0,
        0.0,
        1.0
      ],
      "name": "YellowCrystal"
    },
    {
      "mesh": 3,
      "name": "YellowCrystal_YellowCrystal_0"
    },
    {
      "children": [
        12
      ],
      "matrix": [
        1.0,
        0.0,
        0.0,
        0.0,
        0.0,
        1.0,
        0.0,
        0.0,
        0.0,
        0.0,
        1.0,
        0.0,
        2400.0,
        0.0,
        0.0,
        1.0
      ],
      "name": "OrangeCrystal"
    },
    {
      "mesh": 4,
      "name": "OrangeCrystal_OrangeCrystal_0"
    },
    {
      "children": [
        14
      ],
      "matrix": [
        1.0,
        0.0,
        0.0,
        0.0,
        0.0,
        1.0,
        0.0,
        0.0,
        0.0,
        0.0,
        1.0,
        0.0,
        3000.0,
        0.0,
        0.0,
        1.0
      ],
      "name": "PurpleCrystal"
    },
    {
      "mesh": 5,
      "name": "PurpleCrystal_PurpleCrystal_0"
    }
  ],
  "samplers": [
    {
      "magFilter": 9729,
      "minFilter": 9987,
      "wrapS": 10497,
      "wrapT": 10497
    }
  ],
  "scene": 0,
  "scenes": [
    {
      "name": "Sketchfab_Scene",
      "nodes": [
        0
      ]
    }
  ],
  "textures": [
    {
      "sampler": 0,
      "source": 0
    },
    {
      "sampler": 0,
      "source": 1
    },
    {
      "sampler": 0,
      "source": 2
    },
    {
      "sampler": 0,
      "source": 3
    },
    {
      "sampler": 0,
      "source": 4
    },
    {
      "sampler": 0,
      "source": 5
    },
    {
      "sampler": 0,
      "source": 6
    },
    {
      "sampler": 0,
      "source": 7
    },
    {
      "sampler": 0,
      "source": 8
    },
    {
      "sampler": 0,
      "source": 9
    }
  ]
}
