{
	"asset":{
		"generator":"Khronos glTF Blender I/O v5.0.21",
		"version":"2.0"
	},
	"scene":0,
	"scenes":[
		{
			"name":"Scene",
			"nodes":[
				0
			]
		}
	],
	"nodes":[
		{
			"mesh":0,
			"name":"GreenCrystal_GreenCrystal_0",
			"translation":[
				1200,
				0,
				0
			]
		}
	],
	"materials":[
		{
			"doubleSided":true,
			"emissiveFactor":[
				1,
				1,
				1
			],
			"emissiveTexture":{
				"index":0
			},
			"name":"GreenCrystal",
			"normalTexture":{
				"index":1
			},
			"pbrMetallicRoughness":{
				"baseColorTexture":{
					"index":2
				},
				"metallicFactor":0,
				"metallicRoughnessTexture":{
					"index":3
				}
			}
		}
	],
	"meshes":[
		{
			"name":"GreenCrystal_GreenCrystal_0",
			"primitives":[
				{
					"attributes":{
						"POSITION":0,
						"NORMAL":1,
						"TEXCOORD_0":2
					},
					"indices":3,
					"material":0
				}
			]
		}
	],
	"textures":[
		{
			"sampler":0,
			"source":0
		},
		{
			"sampler":0,
			"source":1
		},
		{
			"sampler":0,
			"source":2
		},
		{
			"sampler":0,
			"source":3
		}
	],
	"images":[
		{
			"mimeType":"image/png",
			"name":"GreenCrystal_emissive",
			"uri":"textures/GreenCrystal_emissive.png"
		},
		{
			"mimeType":"image/png",
			"name":"BlueCrystal_normal",
			"uri":"textures/BlueCrystal_normal.png"
		},
		{
			"mimeType":"image/png",
			"name":"BlueCrystal_baseColor",
			"uri":"textures/BlueCrystal_baseColor.png"
		},
		{
			"mimeType":"image/png",
			"name":"GreenCrystal_metallicRoughness",
			"uri":"textures/GreenCrystal_metallicRoughness.png"
		}
	],
	"accessors":[
		{
			"bufferView":0,
			"componentType":5126,
			"count":147,
			"max":[
				309.5184631347656,
				529.688720703125,
				179.8412322998047
			],
			"min":[
				-147.37423706054688,
				-5.19561767578125,
				-208.67437744140625
			],
			"type":"VEC3"
		},
		{
			"bufferView":1,
			"componentType":5126,
			"count":147,
			"type":"VEC3"
		},
		{
			"bufferView":2,
			"componentType":5126,
			"count":147,
			"type":"VEC2"
		},
		{
			"bufferView":3,
			"componentType":5123,
			"count":378,
			"type":"SCALAR"
		}
	],
	"bufferViews":[
		{
			"buffer":0,
			"byteLength":1764,
			"byteOffset":0,
			"target":34962
		},
		{
			"buffer":0,
			"byteLength":1764,
			"byteOffset":1764,
			"target":34962
		},
		{
			"buffer":0,
			"byteLength":1176,
			"byteOffset":3528,
			"target":34962
		},
		{
			"buffer":0,
			"byteLength":756,
			"byteOffset":4704,
			"target":34963
		}
	],
	"samplers":[
		{
			"magFilter":9729,
			"minFilter":9987
		}
	],
	"buffers":[
		{
			"byteLength":5460,
			"uri":"green.bin"
		}
	]
}
