{
	"asset":{
		"generator":"Khronos glTF Blender I/O v5.0.21",
		"version":"2.0"
	},
	"extensionsUsed":[
		"KHR_materials_emissive_strength",
		"KHR_materials_specular",
		"KHR_materials_ior"
	],
	"scene":0,
	"scenes":[
		{
			"name":"Scene",
			"nodes":[
				0
			]
		}
	],
	"nodes":[
		{
			"mesh":0,
			"name":"Crystal__0",
			"rotation":[
				-0.70710688829422,
				0,
				0,
				0.7071066498756409
			],
			"scale":[
				25.399999618530273,
				25.400009155273438,
				25.400009155273438
			],
			"translation":[
				838.2310180664062,
				-23.121723175048828,
				52.177894592285156
			]
		}
	],
	"materials":[
		{
			"doubleSided":true,
			"emissiveFactor":[
				1,
				1,
				1
			],
			"emissiveTexture":{
				"index":0
			},
			"extensions":{
				"KHR_materials_emissive_strength":{
					"emissiveStrength":7.895833492279053
				},
				"KHR_materials_specular":{
					"specularColorFactor":[
						0.0,
						0.0,
						0.0
					]
				},
				"KHR_materials_ior":{
					"ior":1000
				}
			},
			"name":"Scene_-_Root",
			"normalTexture":{
				"index":1
			},
			"pbrMetallicRoughness":{
				"baseColorTexture":{
					"index":2
				},
				"metallicFactor":0,
				"roughnessFactor":0.6000000238418579
			}
		}
	],
	"meshes":[
		{
			"name":"Crystal__0",
			"primitives":[
				{
					"attributes":{
						"POSITION":0,
						"NORMAL":1,
						"TEXCOORD_0":2
					},
					"indices":3,
					"material":0
				}
			]
		}
	],
	"textures":[
		{
			"sampler":0,
			"source":0
		},
		{
			"sampler":0,
			"source":1
		},
		{
			"sampler":0,
			"source":2
		}
	],
	"images":[
		{
			"mimeType":"image/png",
			"name":"Scene_-_Root_emissive",
			"uri":"textures/Scene_-_Root_emissive.png"
		},
		{
			"mimeType":"image/png",
			"name":"Scene_-_Root_normal",
			"uri":"textures/Scene_-_Root_normal.png"
		},
		{
			"mimeType":"image/png",
			"name":"Scene_-_Root_diffuse",
			"uri":"textures/Scene_-_Root_diffuse.png"
		}
	],
	"accessors":[
		{
			"bufferView":0,
			"componentType":5126,
			"count":56541,
			"max":[
				-21.0101261138916,
				23.02985954284668,
				50.67158889770508
			],
			"min":[
				-46.14463424682617,
				-12.840474128723145,
				-1.0749262571334839
			],
			"type":"VEC3"
		},
		{
			"bufferView":1,
			"componentType":5126,
			"count":56541,
			"type":"VEC3"
		},
		{
			"bufferView":2,
			"componentType":5126,
			"count":56541,
			"type":"VEC2"
		},
		{
			"bufferView":3,
			"componentType":5123,
			"count":56577,
			"type":"SCALAR"
		}
	],
	"bufferViews":[
		{
			"buffer":0,
			"byteLength":678492,
			"byteOffset":0,
			"target":34962
		},
		{
			"buffer":0,
			"byteLength":678492,
			"byteOffset":678492,
			"target":34962
		},
		{
			"buffer":0,
			"byteLength":452328,
			"byteOffset":1356984,
			"target":34962
		},
		{
			"buffer":0,
			"byteLength":113154,
			"byteOffset":1809312,
			"target":34963
		}
	],
	"samplers":[
		{
			"magFilter":9729,
			"minFilter":9987
		}
	],
	"buffers":[
		{
			"byteLength":1922468,
			"uri":"spiky.bin"
		}
	]
}
