{
	"asset":{
		"generator":"Khronos glTF Blender I/O v5.0.21",
		"version":"2.0"
	},
	"scene":0,
	"scenes":[
		{
			"name":"Scene",
			"nodes":[
				0
			]
		}
	],
	"nodes":[
		{
			"mesh":0,
			"name":"defaultMaterial"
		}
	],
	"materials":[
		{
			"doubleSided":true,
			"emissiveFactor":[
				1,
				1,
				1
			],
			"emissiveTexture":{
				"index":0
			},
			"name":"DefaultMaterial",
			"normalTexture":{
				"index":1
			},
			"occlusionTexture":{
				"index":2
			},
			"pbrMetallicRoughness":{
				"baseColorTexture":{
					"index":3
				},
				"metallicRoughnessTexture":{
					"index":2
				}
			}
		}
	],
	"meshes":[
		{
			"name":"defaultMaterial.005",
			"primitives":[
				{
					"attributes":{
						"POSITION":0,
						"NORMAL":1,
						"TEXCOORD_0":2
					},
					"indices":3,
					"material":0
				}
			]
		}
	],
	"textures":[
		{
			"sampler":0,
			"source":0
		},
		{
			"sampler":0,
			"source":1
		},
		{
			"sampler":0,
			"source":2
		},
		{
			"sampler":0,
			"source":3
		}
	],
	"images":[
		{
			"mimeType":"image/jpeg",
			"name":"DefaultMaterial_emissive",
			"uri":"textures/DefaultMaterial_emissive.jpg"
		},
		{
			"mimeType":"image/jpeg",
			"name":"DefaultMaterial_normal",
			"uri":"textures/DefaultMaterial_normal.jpg"
		},
		{
			"mimeType":"image/png",
			"name":"DefaultMaterial_metallicRoughness",
			"uri":"textures/DefaultMaterial_metallicRoughness.png"
		},
		{
			"mimeType":"image/jpeg",
			"name":"DefaultMaterial_baseColor",
			"uri":"textures/DefaultMaterial_baseColor.jpg"
		}
	],
	"accessors":[
		{
			"bufferView":0,
			"componentType":5126,
			"count":166,
			"max":[
				0.36159399151802063,
				1,
				0.2851400077342987
			],
			"min":[
				-0.36159399151802063,
				-1,
				-0.2851400077342987
			],
			"type":"VEC3"
		},
		{
			"bufferView":1,
			"componentType":5126,
			"count":166,
			"type":"VEC3"
		},
		{
			"bufferView":2,
			"componentType":5126,
			"count":166,
			"type":"VEC2"
		},
		{
			"bufferView":3,
			"componentType":5123,
			"count":678,
			"type":"SCALAR"
		}
	],
	"bufferViews":[
		{
			"buffer":0,
			"byteLength":1992,
			"byteOffset":0,
			"target":34962
		},
		{
			"buffer":0,
			"byteLength":1992,
			"byteOffset":1992,
			"target":34962
		},
		{
			"buffer":0,
			"byteLength":1328,
			"byteOffset":3984,
			"target":34962
		},
		{
			"buffer":0,
			"byteLength":1356,
			"byteOffset":5312,
			"target":34963
		}
	],
	"samplers":[
		{
			"magFilter":9729,
			"minFilter":9987
		}
	],
	"buffers":[
		{
			"byteLength":6668,
			"uri":"sunset.bin"
		}
	]
}
